<svg xmlns="http://www.w3.org/2000/svg" xmlns:xlink="http://www.w3.org/1999/xlink" width="131.182" height="131.182" viewBox="0 0 131.182 131.182">
  <defs>
    <filter id="dashicon_ring_1">
      <feOffset dy="3" input="SourceAlpha"/>
      <feGaussianBlur stdDeviation="3" result="blur"/>
      <feFlood flood-color="#3a5070" flood-opacity="0.4" result="color"/>
      <feComposite operator="out" in="SourceGraphic" in2="blur"/>
      <feComposite operator="in" in="color"/>
      <feComposite operator="in" in2="SourceGraphic"/>
    </filter>
  </defs>
  <g data-type="innerShadowGroup">
    <path id="dashicon_ring_1-2" data-name="dashicon_ring_1" d="M67.591,2a65.591,65.591,0,1,0,65.591,65.591A65.615,65.615,0,0,0,67.591,2Zm0,118.064a52.473,52.473,0,1,1,52.473-52.473A52.458,52.458,0,0,1,67.591,120.064Z" transform="translate(-2 -2)" fill="#dcf0f4"/>
    <g transform="matrix(1, 0, 0, 1, 0, 0)" filter="url(#dashicon_ring_1)">
      <path id="dashicon_ring_1-3" data-name="dashicon_ring_1" d="M67.591,2a65.591,65.591,0,1,0,65.591,65.591A65.615,65.615,0,0,0,67.591,2Zm0,118.064a52.473,52.473,0,1,1,52.473-52.473A52.458,52.458,0,0,1,67.591,120.064Z" transform="translate(-2 -2)" fill="#fff"/>
    </g>
  </g>
</svg>
