<svg xmlns="http://www.w3.org/2000/svg" xmlns:xlink="http://www.w3.org/1999/xlink" width="129.875" height="124.06" viewBox="0 0 129.875 124.06">
  <defs>
    <filter id="Path_13">
      <feOffset dy="3" input="SourceAlpha"/>
      <feGaussianBlur stdDeviation="3" result="blur"/>
      <feFlood flood-color="#3a5070" flood-opacity="0.4" result="color"/>
      <feComposite operator="out" in="SourceGraphic" in2="blur"/>
      <feComposite operator="in" in="color"/>
      <feComposite operator="in" in2="SourceGraphic"/>
    </filter>
    <filter id="Path_14">
      <feOffset dy="3" input="SourceAlpha"/>
      <feGaussianBlur stdDeviation="3" result="blur-2"/>
      <feFlood flood-color="#3a5070" flood-opacity="0.4" result="color-2"/>
      <feComposite operator="out" in="SourceGraphic" in2="blur-2"/>
      <feComposite operator="in" in="color-2"/>
      <feComposite operator="in" in2="SourceGraphic"/>
    </filter>
  </defs>
  <g id="dashicon_ring_2" transform="translate(-13744.601 2694.194)">
    <g id="looks_black_24dp" transform="translate(13874.477 -2694.194) rotate(90)">
      <g data-type="innerShadowGroup">
        <path id="Path_13-2" data-name="Path 13" d="M62.026,0A62.363,62.363,0,0,0,.021,56.059,5.727,5.727,0,0,0,5.74,62.288a5.6,5.6,0,0,0,5.606-4.983,50.951,50.951,0,0,1,101.416,0,5.6,5.6,0,0,0,5.606,4.983,5.684,5.684,0,0,0,5.663-6.229A62.363,62.363,0,0,0,62.026,0Z" transform="translate(0)" fill="#dcf0f4"/>
        <g transform="matrix(0, -1, 1, 0, 0, 129.88)" filter="url(#Path_13)">
          <path id="Path_13-3" data-name="Path 13" d="M62.026,0A62.363,62.363,0,0,0,.021,56.059,5.727,5.727,0,0,0,5.74,62.288a5.6,5.6,0,0,0,5.606-4.983,50.951,50.951,0,0,1,101.416,0,5.6,5.6,0,0,0,5.606,4.983,5.684,5.684,0,0,0,5.663-6.229A62.363,62.363,0,0,0,62.026,0Z" transform="translate(129.88 0) rotate(90)" fill="#fff"/>
        </g>
      </g>
      <g data-type="innerShadowGroup">
        <path id="Path_14-2" data-name="Path 14" d="M62.026,0A62.363,62.363,0,0,0,.021,56.059,5.727,5.727,0,0,0,5.74,62.288a5.6,5.6,0,0,0,5.606-4.983,50.951,50.951,0,0,1,101.416,0,5.6,5.6,0,0,0,5.606,4.983,5.684,5.684,0,0,0,5.663-6.229A62.363,62.363,0,0,0,62.026,0Z" transform="translate(124.06 129.875) rotate(180)" fill="#dcf0f4"/>
        <g transform="matrix(0, -1, 1, 0, 0, 129.88)" filter="url(#Path_14)">
          <path id="Path_14-3" data-name="Path 14" d="M62.026,0A62.363,62.363,0,0,0,.021,56.059,5.727,5.727,0,0,0,5.74,62.288a5.6,5.6,0,0,0,5.606-4.983,50.951,50.951,0,0,1,101.416,0,5.6,5.6,0,0,0,5.606,4.983,5.684,5.684,0,0,0,5.663-6.229A62.363,62.363,0,0,0,62.026,0Z" transform="translate(0 124.06) rotate(-90)" fill="#fff"/>
        </g>
      </g>
    </g>
  </g>
</svg>
