<svg xmlns="http://www.w3.org/2000/svg" xmlns:xlink="http://www.w3.org/1999/xlink" width="32.698" height="43.701" viewBox="0 0 32.698 43.701">
  <defs>
    <filter id="dashicon_icon_lines" x="0" y="0" width="32.698" height="43.701" filterUnits="userSpaceOnUse">
      <feOffset input="SourceAlpha"/>
      <feGaussianBlur stdDeviation="2" result="blur"/>
      <feFlood flood-color="#3a5070" flood-opacity="0.4"/>
      <feComposite operator="in" in2="blur"/>
      <feComposite in="SourceGraphic"/>
    </filter>
    <filter id="dashicon_icon_lines-2" x="0" y="0" width="32.698" height="43.701" filterUnits="userSpaceOnUse">
      <feOffset dy="1" input="SourceAlpha"/>
      <feGaussianBlur stdDeviation="1" result="blur-2"/>
      <feFlood flood-color="#3a5070" flood-opacity="0.4" result="color"/>
      <feComposite operator="out" in="SourceGraphic" in2="blur-2"/>
      <feComposite operator="in" in="color"/>
      <feComposite operator="in" in2="SourceGraphic"/>
    </filter>
  </defs>
  <g data-type="innerShadowGroup">
    <g transform="matrix(1, 0, 0, 1, 0, 0)" filter="url(#dashicon_icon_lines)">
      <path id="dashicon_icon_lines-3" data-name="dashicon_icon_lines" d="M3.595,11.282l-12.775.007a2.649,2.649,0,0,1-2.641-2.641A2.649,2.649,0,0,1-9.18,6.007L3.595,6v5.282m0,13.206-15.416.007a2.649,2.649,0,0,1-2.641-2.641,2.649,2.649,0,0,1,2.641-2.641l15.416-.007v5.282m0,13.206-18.057.007A2.646,2.646,0,0,1-17.1,35.06a2.646,2.646,0,0,1,2.641-2.641l18.057-.007Z" transform="translate(23.1)" fill="#dcf0f4"/>
    </g>
    <g transform="matrix(1, 0, 0, 1, 0, 0)" filter="url(#dashicon_icon_lines-2)">
      <path id="dashicon_icon_lines-4" data-name="dashicon_icon_lines" d="M3.595,11.282l-12.775.007a2.649,2.649,0,0,1-2.641-2.641A2.649,2.649,0,0,1-9.18,6.007L3.595,6v5.282m0,13.206-15.416.007a2.649,2.649,0,0,1-2.641-2.641,2.649,2.649,0,0,1,2.641-2.641l15.416-.007v5.282m0,13.206-18.057.007A2.646,2.646,0,0,1-17.1,35.06a2.646,2.646,0,0,1,2.641-2.641l18.057-.007Z" transform="translate(23.1)" fill="#fff"/>
    </g>
  </g>
</svg>
