<svg xmlns="http://www.w3.org/2000/svg" xmlns:xlink="http://www.w3.org/1999/xlink" width="42.282" height="49.682" viewBox="0 0 42.282 49.682">
  <defs>
    <filter id="dashicon_icon_arrow" x="0" y="0" width="42.282" height="49.682" filterUnits="userSpaceOnUse">
      <feOffset input="SourceAlpha"/>
      <feGaussianBlur stdDeviation="3" result="blur"/>
      <feFlood flood-color="#3a5070" flood-opacity="0.4"/>
      <feComposite operator="in" in2="blur"/>
      <feComposite in="SourceGraphic"/>
    </filter>
    <filter id="dashicon_icon_arrow-2" x="0" y="0" width="42.282" height="49.682" filterUnits="userSpaceOnUse">
      <feOffset dy="3" input="SourceAlpha"/>
      <feGaussianBlur stdDeviation="2" result="blur-2"/>
      <feFlood flood-color="#3a5070" flood-opacity="0.4" result="color"/>
      <feComposite operator="out" in="SourceGraphic" in2="blur-2"/>
      <feComposite operator="in" in="color"/>
      <feComposite operator="in" in2="SourceGraphic"/>
    </filter>
  </defs>
  <g data-type="innerShadowGroup">
    <g transform="matrix(1, 0, 0, 1, 0, 0)" filter="url(#dashicon_icon_arrow)">
      <path id="dashicon_icon_arrow-3" data-name="dashicon_icon_arrow" d="M32.126,10.057V35.5a3.14,3.14,0,0,0,4.938,2.563L55.1,25.339a3.127,3.127,0,0,0,0-5.094L37.064,7.526A3.12,3.12,0,0,0,32.126,10.057Z" transform="translate(-23.13 2.06)" fill="#dcf0f4"/>
    </g>
    <g transform="matrix(1, 0, 0, 1, 0, 0)" filter="url(#dashicon_icon_arrow-2)">
      <path id="dashicon_icon_arrow-4" data-name="dashicon_icon_arrow" d="M32.126,10.057V35.5a3.14,3.14,0,0,0,4.938,2.563L55.1,25.339a3.127,3.127,0,0,0,0-5.094L37.064,7.526A3.12,3.12,0,0,0,32.126,10.057Z" transform="translate(-23.13 2.06)" fill="#fff"/>
    </g>
  </g>
</svg>
